<svg width="99" height="14" viewBox="0 0 99 14" fill="none" xmlns="http://www.w3.org/2000/svg">
<path d="M4.716 10.084C3.94 10.084 3.232 9.904 2.592 9.544C1.952 9.176 1.444 8.668 1.068 8.02C0.7 7.364 0.516 6.628 0.516 5.812C0.516 4.996 0.7 4.264 1.068 3.616C1.444 2.96 1.952 2.452 2.592 2.092C3.232 1.724 3.94 1.54 4.716 1.54C5.5 1.54 6.212 1.724 6.852 2.092C7.492 2.452 7.996 2.956 8.364 3.604C8.732 4.252 8.916 4.988 8.916 5.812C8.916 6.636 8.732 7.372 8.364 8.02C7.996 8.668 7.492 9.176 6.852 9.544C6.212 9.904 5.5 10.084 4.716 10.084ZM4.716 9.136C5.3 9.136 5.824 9 6.288 8.728C6.76 8.456 7.128 8.068 7.392 7.564C7.664 7.06 7.8 6.476 7.8 5.812C7.8 5.14 7.664 4.556 7.392 4.06C7.128 3.556 6.764 3.168 6.3 2.896C5.836 2.624 5.308 2.488 4.716 2.488C4.124 2.488 3.596 2.624 3.132 2.896C2.668 3.168 2.3 3.556 2.028 4.06C1.764 4.556 1.632 5.14 1.632 5.812C1.632 6.476 1.764 7.06 2.028 7.564C2.3 8.068 2.668 8.456 3.132 8.728C3.604 9 4.132 9.136 4.716 9.136ZM13.2836 4.324H11.9036V10H10.8116V4.324H9.95959V3.424H10.8116V2.956C10.8116 2.22 10.9996 1.684 11.3756 1.348C11.7596 1.004 12.3716 0.831999 13.2116 0.831999V1.744C12.7316 1.744 12.3916 1.84 12.1916 2.032C11.9996 2.216 11.9036 2.524 11.9036 2.956V3.424H13.2836V4.324ZM17.4828 4.324H16.1028V10H15.0108V4.324H14.1588V3.424H15.0108V2.956C15.0108 2.22 15.1988 1.684 15.5748 1.348C15.9588 1.004 16.5708 0.831999 17.4108 0.831999V1.744C16.9308 1.744 16.5908 1.84 16.3908 2.032C16.1988 2.216 16.1028 2.524 16.1028 2.956V3.424H17.4828V4.324ZM25.006 6.46C25.006 6.668 24.994 6.888 24.97 7.12H19.714C19.754 7.768 19.974 8.276 20.374 8.644C20.782 9.004 21.274 9.184 21.85 9.184C22.322 9.184 22.714 9.076 23.026 8.86C23.346 8.636 23.57 8.34 23.698 7.972H24.874C24.698 8.604 24.346 9.12 23.818 9.52C23.29 9.912 22.634 10.108 21.85 10.108C21.226 10.108 20.666 9.968 20.17 9.688C19.682 9.408 19.298 9.012 19.018 8.5C18.738 7.98 18.598 7.38 18.598 6.7C18.598 6.02 18.734 5.424 19.006 4.912C19.278 4.4 19.658 4.008 20.146 3.736C20.642 3.456 21.21 3.316 21.85 3.316C22.474 3.316 23.026 3.452 23.506 3.724C23.986 3.996 24.354 4.372 24.61 4.852C24.874 5.324 25.006 5.86 25.006 6.46ZM23.878 6.232C23.878 5.816 23.786 5.46 23.602 5.164C23.418 4.86 23.166 4.632 22.846 4.48C22.534 4.32 22.186 4.24 21.802 4.24C21.25 4.24 20.778 4.416 20.386 4.768C20.002 5.12 19.782 5.608 19.726 6.232H23.878ZM27.7894 4.492C27.9814 4.116 28.2534 3.824 28.6054 3.616C28.9654 3.408 29.4014 3.304 29.9134 3.304V4.432H29.6254C28.4014 4.432 27.7894 5.096 27.7894 6.424V10H26.6974V3.424H27.7894V4.492ZM37.424 6.46C37.424 6.668 37.412 6.888 37.388 7.12H32.132C32.172 7.768 32.392 8.276 32.792 8.644C33.2 9.004 33.692 9.184 34.268 9.184C34.74 9.184 35.132 9.076 35.444 8.86C35.764 8.636 35.988 8.34 36.116 7.972H37.292C37.116 8.604 36.764 9.12 36.236 9.52C35.708 9.912 35.052 10.108 34.268 10.108C33.644 10.108 33.084 9.968 32.588 9.688C32.1 9.408 31.716 9.012 31.436 8.5C31.156 7.98 31.016 7.38 31.016 6.7C31.016 6.02 31.152 5.424 31.424 4.912C31.696 4.4 32.076 4.008 32.564 3.736C33.06 3.456 33.628 3.316 34.268 3.316C34.892 3.316 35.444 3.452 35.924 3.724C36.404 3.996 36.772 4.372 37.028 4.852C37.292 5.324 37.424 5.86 37.424 6.46ZM36.296 6.232C36.296 5.816 36.204 5.46 36.02 5.164C35.836 4.86 35.584 4.632 35.264 4.48C34.952 4.32 34.604 4.24 34.22 4.24C33.668 4.24 33.196 4.416 32.804 4.768C32.42 5.12 32.2 5.608 32.144 6.232H36.296ZM38.7074 6.688C38.7074 6.016 38.8434 5.428 39.1154 4.924C39.3874 4.412 39.7594 4.016 40.2314 3.736C40.7114 3.456 41.2474 3.316 41.8394 3.316C42.3514 3.316 42.8274 3.436 43.2674 3.676C43.7074 3.908 44.0434 4.216 44.2754 4.6V1.12H45.3794V10H44.2754V8.764C44.0594 9.156 43.7394 9.48 43.3154 9.736C42.8914 9.984 42.3954 10.108 41.8274 10.108C41.2434 10.108 40.7114 9.964 40.2314 9.676C39.7594 9.388 39.3874 8.984 39.1154 8.464C38.8434 7.944 38.7074 7.352 38.7074 6.688ZM44.2754 6.7C44.2754 6.204 44.1754 5.772 43.9754 5.404C43.7754 5.036 43.5034 4.756 43.1594 4.564C42.8234 4.364 42.4514 4.264 42.0434 4.264C41.6354 4.264 41.2634 4.36 40.9274 4.552C40.5914 4.744 40.3234 5.024 40.1234 5.392C39.9234 5.76 39.8234 6.192 39.8234 6.688C39.8234 7.192 39.9234 7.632 40.1234 8.008C40.3234 8.376 40.5914 8.66 40.9274 8.86C41.2634 9.052 41.6354 9.148 42.0434 9.148C42.4514 9.148 42.8234 9.052 43.1594 8.86C43.5034 8.66 43.7754 8.376 43.9754 8.008C44.1754 7.632 44.2754 7.196 44.2754 6.7ZM52.256 4.324V8.2C52.256 8.52 52.324 8.748 52.46 8.884C52.596 9.012 52.832 9.076 53.168 9.076H53.972V10H52.988C52.38 10 51.924 9.86 51.62 9.58C51.316 9.3 51.164 8.84 51.164 8.2V4.324H50.312V3.424H51.164V1.768H52.256V3.424H53.972V4.324H52.256ZM58.8091 3.304C59.3051 3.304 59.7531 3.412 60.1531 3.628C60.5531 3.836 60.8651 4.152 61.0891 4.576C61.3211 5 61.4371 5.516 61.4371 6.124V10H60.3571V6.28C60.3571 5.624 60.1931 5.124 59.8651 4.78C59.5371 4.428 59.0891 4.252 58.5211 4.252C57.9451 4.252 57.4851 4.432 57.1411 4.792C56.8051 5.152 56.6371 5.676 56.6371 6.364V10H55.5451V1.12H56.6371V4.36C56.8531 4.024 57.1491 3.764 57.5251 3.58C57.9091 3.396 58.3371 3.304 58.8091 3.304ZM64.5629 4.492C64.7549 4.116 65.0269 3.824 65.3789 3.616C65.7389 3.408 66.1749 3.304 66.6869 3.304V4.432H66.3989C65.1749 4.432 64.5629 5.096 64.5629 6.424V10H63.4709V3.424H64.5629V4.492ZM71.0654 10.108C70.4494 10.108 69.8894 9.968 69.3854 9.688C68.8894 9.408 68.4974 9.012 68.2094 8.5C67.9294 7.98 67.7894 7.38 67.7894 6.7C67.7894 6.028 67.9334 5.436 68.2214 4.924C68.5174 4.404 68.9174 4.008 69.4214 3.736C69.9254 3.456 70.4894 3.316 71.1134 3.316C71.7374 3.316 72.3014 3.456 72.8054 3.736C73.3094 4.008 73.7054 4.4 73.9934 4.912C74.2894 5.424 74.4374 6.02 74.4374 6.7C74.4374 7.38 74.2854 7.98 73.9814 8.5C73.6854 9.012 73.2814 9.408 72.7694 9.688C72.2574 9.968 71.6894 10.108 71.0654 10.108ZM71.0654 9.148C71.4574 9.148 71.8254 9.056 72.1694 8.872C72.5134 8.688 72.7894 8.412 72.9974 8.044C73.2134 7.676 73.3214 7.228 73.3214 6.7C73.3214 6.172 73.2174 5.724 73.0094 5.356C72.8014 4.988 72.5294 4.716 72.1934 4.54C71.8574 4.356 71.4934 4.264 71.1014 4.264C70.7014 4.264 70.3334 4.356 69.9974 4.54C69.6694 4.716 69.4054 4.988 69.2054 5.356C69.0054 5.724 68.9054 6.172 68.9054 6.7C68.9054 7.236 69.0014 7.688 69.1934 8.056C69.3934 8.424 69.6574 8.7 69.9854 8.884C70.3134 9.06 70.6734 9.148 71.0654 9.148ZM81.9552 3.424V10H80.8632V9.028C80.6552 9.364 80.3632 9.628 79.9872 9.82C79.6192 10.004 79.2112 10.096 78.7632 10.096C78.2512 10.096 77.7912 9.992 77.3832 9.784C76.9752 9.568 76.6512 9.248 76.4112 8.824C76.1792 8.4 76.0632 7.884 76.0632 7.276V3.424H77.1432V7.132C77.1432 7.78 77.3072 8.28 77.6352 8.632C77.9632 8.976 78.4112 9.148 78.9792 9.148C79.5632 9.148 80.0232 8.968 80.3592 8.608C80.6952 8.248 80.8632 7.724 80.8632 7.036V3.424H81.9552ZM86.761 3.316C87.329 3.316 87.825 3.44 88.249 3.688C88.681 3.936 89.001 4.248 89.209 4.624V3.424H90.313V10.144C90.313 10.744 90.185 11.276 89.929 11.74C89.673 12.212 89.305 12.58 88.825 12.844C88.353 13.108 87.801 13.24 87.169 13.24C86.305 13.24 85.585 13.036 85.009 12.628C84.433 12.22 84.093 11.664 83.989 10.96H85.069C85.189 11.36 85.437 11.68 85.813 11.92C86.189 12.168 86.641 12.292 87.169 12.292C87.769 12.292 88.257 12.104 88.633 11.728C89.017 11.352 89.209 10.824 89.209 10.144V8.764C88.993 9.148 88.673 9.468 88.249 9.724C87.825 9.98 87.329 10.108 86.761 10.108C86.177 10.108 85.645 9.964 85.165 9.676C84.693 9.388 84.321 8.984 84.049 8.464C83.777 7.944 83.641 7.352 83.641 6.688C83.641 6.016 83.777 5.428 84.049 4.924C84.321 4.412 84.693 4.016 85.165 3.736C85.645 3.456 86.177 3.316 86.761 3.316ZM89.209 6.7C89.209 6.204 89.109 5.772 88.909 5.404C88.709 5.036 88.437 4.756 88.093 4.564C87.757 4.364 87.385 4.264 86.977 4.264C86.569 4.264 86.197 4.36 85.861 4.552C85.525 4.744 85.257 5.024 85.057 5.392C84.857 5.76 84.757 6.192 84.757 6.688C84.757 7.192 84.857 7.632 85.057 8.008C85.257 8.376 85.525 8.66 85.861 8.86C86.197 9.052 86.569 9.148 86.977 9.148C87.385 9.148 87.757 9.052 88.093 8.86C88.437 8.66 88.709 8.376 88.909 8.008C89.109 7.632 89.209 7.196 89.209 6.7ZM95.6724 3.304C96.1684 3.304 96.6164 3.412 97.0164 3.628C97.4164 3.836 97.7284 4.152 97.9524 4.576C98.1844 5 98.3004 5.516 98.3004 6.124V10H97.2204V6.28C97.2204 5.624 97.0564 5.124 96.7284 4.78C96.4004 4.428 95.9524 4.252 95.3844 4.252C94.8084 4.252 94.3484 4.432 94.0044 4.792C93.6684 5.152 93.5004 5.676 93.5004 6.364V10H92.4084V1.12H93.5004V4.36C93.7164 4.024 94.0124 3.764 94.3884 3.58C94.7724 3.396 95.2004 3.304 95.6724 3.304Z" fill="white"/>
</svg>
